<svg width="108" height="98" viewBox="0 0 108 98" fill="none" xmlns="http://www.w3.org/2000/svg">
<path d="M105.053 60.0769C98.3859 83.2885 80.0405 98 54.4236 98C28.8067 98 10 75.5811 10 49.9423C10 24.3036 54.9383 13 80.5552 13C106.172 13 112.566 33.9231 105.053 60.0769Z" fill="#5FB5BF" fill-opacity="0.12"/>
<path d="M80.7812 55.8125H74.9062V49.4014C76.7031 48.3709 78.259 46.9683 79.4698 45.2876C80.6806 43.6069 81.5183 41.687 81.9269 39.6563H83.7188C84.8874 39.6563 86.0081 39.1921 86.8344 38.3657C87.6608 37.5394 88.125 36.4186 88.125 35.25V32.3125C88.1212 31.4045 87.837 30.5197 87.3112 29.7794C86.7854 29.039 86.0436 28.4792 85.1875 28.1765V24.9688C85.1842 22.6738 84.671 20.4083 83.685 18.3359C84.6936 17.4434 85.484 16.3314 85.9953 15.0854C86.5066 13.8395 86.7253 12.4928 86.6345 11.1491C86.5436 9.8054 86.1457 8.50043 85.4713 7.33464C84.797 6.16886 83.8641 5.17333 82.7446 4.42469C81.625 3.67604 80.3487 3.19423 79.0137 3.01634C77.6787 2.83845 76.3207 2.96922 75.0441 3.39859C73.7676 3.82796 72.6067 4.54448 71.6505 5.493C70.6944 6.44152 69.9687 7.59676 69.5292 8.86981C69.1326 8.84338 68.7375 8.81253 68.3307 8.81253H66.7943C62.4184 8.72626 58.1868 10.3784 55.027 13.4069C51.8672 16.4354 50.037 20.5931 49.9375 24.9688V28.1765C49.0814 28.4792 48.3396 29.039 47.8138 29.7794C47.288 30.5197 47.0038 31.4045 47 32.3125V35.25C47.0041 36.1578 47.2884 37.0423 47.8142 37.7823C48.34 38.5224 49.0816 39.082 49.9375 39.3846V43.8804C49.9348 45.9386 50.6216 47.9385 51.8882 49.5608C53.1549 51.1831 54.9284 52.3344 56.9258 52.831L57.6367 49.9801C56.2755 49.6417 55.067 48.8571 54.2039 47.7515C53.3408 46.6459 52.873 45.283 52.875 43.8804V39.6563H53.1981C53.6071 41.687 54.445 43.607 55.6558 45.2878C56.8665 46.9687 58.4222 48.3717 60.2188 49.4029V55.8125H54.3438C52.9747 55.8124 51.6195 56.0865 50.3582 56.6188C49.0969 57.1511 47.955 57.9307 47 58.9116V58.75C47 57.1919 46.381 55.6976 45.2793 54.5958C44.1775 53.494 42.6831 52.875 41.125 52.875H8.8125C7.25435 52.875 5.76002 53.494 4.65825 54.5958C3.55647 55.6976 2.9375 57.1919 2.9375 58.75V80.7813C2.9375 82.3394 3.55647 83.8338 4.65825 84.9355C5.76002 86.0373 7.25435 86.6563 8.8125 86.6563H16.8172L16.1739 90.8393L19.0761 91.2799L21.8227 73.4375H27.9062V91.0625H30.8438V86.6563H41.125C42.1594 86.6502 43.1734 86.3683 44.0625 85.8397V91.0625H47V66.0938C47.0054 64.5606 47.4914 63.0678 48.3896 61.8253C49.2877 60.5827 50.5529 59.6531 52.007 59.1672L50.0418 64.0787C49.9617 64.2784 49.9265 64.4934 49.9387 64.7083C49.9509 64.9231 50.0102 65.1327 50.1123 65.3222C50.2145 65.5116 50.357 65.6763 50.5298 65.8046C50.7027 65.9328 50.9016 66.0215 51.1125 66.0644L56.8245 67.2071L55.883 70.0344C55.7964 70.2933 55.7837 70.5711 55.8462 70.8367C55.9088 71.1024 56.0441 71.3454 56.237 71.5384L66.5182 81.8197C66.5403 81.8417 66.5711 81.8491 66.5961 81.8711C66.6423 81.9172 66.6914 81.9604 66.7429 82.0004L66.7591 82.015C66.8119 82.0442 66.8669 82.0692 66.9236 82.0899C66.9662 82.1105 67.0044 82.134 67.0484 82.1502C67.0925 82.1663 67.0998 82.1751 67.1277 82.1839C67.4049 82.2721 67.7025 82.2721 67.9796 82.1839C68.0075 82.1751 68.0325 82.1604 68.0589 82.1502C68.0854 82.1399 68.1412 82.1105 68.1838 82.0899C68.2405 82.0692 68.2955 82.0442 68.3483 82.015L68.3644 82.0004C68.416 81.9604 68.4651 81.9172 68.5113 81.8711C68.5363 81.8491 68.5671 81.8417 68.5892 81.8197L78.8704 71.5384C79.0633 71.3454 79.1986 71.1024 79.2611 70.8367C79.3237 70.5711 79.3109 70.2933 79.2244 70.0344L78.2829 67.2071L84.0125 66.0644C84.2239 66.0223 84.4235 65.9341 84.597 65.8061C84.7706 65.6782 84.9138 65.5136 85.0165 65.324C85.1193 65.1345 85.1791 64.9247 85.1916 64.7094C85.2041 64.4942 85.1691 64.2788 85.0891 64.0787L83.1239 59.1672C84.5769 59.6541 85.8408 60.5842 86.7378 61.8266C87.6349 63.069 88.12 64.5614 88.125 66.0938V91.0625H91.0625V66.0938C91.0594 63.368 89.9752 60.7547 88.0478 58.8273C86.1203 56.8998 83.507 55.8156 80.7812 55.8125ZM44.0625 66.0938V80.7813C44.0625 81.5604 43.753 82.3075 43.2021 82.8584C42.6512 83.4093 41.9041 83.7188 41.125 83.7188H30.8438V71.9688C30.8438 71.5792 30.689 71.2057 30.4136 70.9302C30.1381 70.6548 29.7645 70.5 29.375 70.5H20.5625C20.2117 70.5002 19.8726 70.6258 19.6065 70.8543C19.3403 71.0827 19.1647 71.3989 19.1114 71.7455L17.2696 83.7188H8.8125C8.03343 83.7188 7.28626 83.4093 6.73537 82.8584C6.18449 82.3075 5.875 81.5604 5.875 80.7813V58.75C5.875 57.971 6.18449 57.2238 6.73537 56.6729C7.28626 56.122 8.03343 55.8125 8.8125 55.8125H41.125C41.9041 55.8125 42.6512 56.122 43.2021 56.6729C43.753 57.2238 44.0625 57.971 44.0625 58.75V66.0938ZM84.3856 31.023C84.6249 31.1434 84.8263 31.3275 84.9678 31.555C85.1093 31.7825 85.1853 32.0446 85.1875 32.3125V35.25C85.1875 35.6396 85.0328 36.0131 84.7573 36.2886C84.4819 36.564 84.1083 36.7188 83.7188 36.7188H82.25V34.2219L84.3856 31.023ZM77.8438 5.87503C78.9865 5.87554 80.1043 6.2093 81.0602 6.83545C82.0162 7.4616 82.7687 8.35294 83.2258 9.40031C83.6828 10.4477 83.8245 11.6056 83.6335 12.7323C83.4424 13.8589 82.9269 14.9054 82.1501 15.7436C79.7909 12.5391 76.377 10.2694 72.5092 9.33394C72.9705 8.30458 73.7193 7.43046 74.6658 6.8168C75.6122 6.20314 76.7158 5.87609 77.8438 5.87503ZM52.875 36.7188H51.4062C51.0167 36.7188 50.6431 36.564 50.3677 36.2886C50.0922 36.0131 49.9375 35.6396 49.9375 35.25V32.3125C49.9375 31.923 50.0922 31.5494 50.3677 31.274C50.6431 30.9985 51.0167 30.8438 51.4062 30.8438H52.875V36.7188ZM52.9455 27.9063L52.875 24.9688C52.9742 21.3722 54.4949 17.9615 57.1038 15.4838C59.7128 13.0062 63.1974 11.6636 66.7943 11.75H68.3307C71.9276 11.6636 75.4122 13.0062 78.0212 15.4838C80.6301 17.9615 82.1508 21.3722 82.25 24.9688V28.9344L80.5653 31.4621C77.6762 28.325 75.7079 24.4519 74.8769 20.2688C74.8223 19.9975 74.6923 19.7471 74.5017 19.5465C74.311 19.3459 74.0676 19.2033 73.7995 19.135C73.5313 19.0667 73.2493 19.0755 72.986 19.1605C72.7226 19.2454 72.4886 19.4031 72.311 19.6152C69.8106 22.2338 66.8056 24.3186 63.4772 25.7436C60.1488 27.1686 56.5661 27.9043 52.9455 27.9063ZM55.883 38.0098C55.8328 37.5813 55.8092 37.1502 55.8125 36.7188V30.6969C62.0509 30.107 67.9431 27.5603 72.6473 23.4207C73.9021 27.5065 76.1403 31.2219 79.1656 34.241L79.3125 34.3879V36.7188C79.313 37.1562 79.2865 37.5933 79.2332 38.0274C79.0209 39.9827 78.3182 41.8528 77.1903 43.464C76.0623 45.0752 74.5456 46.3753 72.781 47.2438C71.1544 48.0354 69.3692 48.4467 67.5603 48.4467C65.7514 48.4467 63.9662 48.0354 62.3396 47.2438C60.5735 46.373 59.0562 45.0698 57.9287 43.4554C56.8012 41.841 56.1 39.9678 55.8903 38.0098H55.883ZM74.282 58.6795L72.0525 64.625H63.0725L60.843 58.6795C61.4977 58.5371 62.0841 58.1752 62.5049 57.6537C62.9256 57.1322 63.1555 56.4826 63.1562 55.8125V50.7057C66.0195 51.6399 69.1055 51.6399 71.9688 50.7057V55.8125C71.9695 56.4826 72.1994 57.1322 72.6201 57.6537C73.0409 58.1752 73.6273 58.5371 74.282 58.6795ZM58.963 70.102L60.138 66.5579C60.2046 66.3601 60.2283 66.1504 60.2076 65.9427C60.1868 65.735 60.122 65.5341 60.0175 65.3535C59.913 65.1728 59.7711 65.0165 59.6015 64.8949C59.4318 64.7734 59.2382 64.6894 59.0335 64.6485L53.4214 63.5264L55.3381 58.75H57.7322L63.8054 74.9474L58.963 70.102ZM67.5625 76.5968L64.1741 67.5625H70.9509L67.5625 76.5968ZM76.0812 64.6529C75.8766 64.6938 75.6829 64.7778 75.5133 64.8993C75.3436 65.0209 75.2018 65.1772 75.0972 65.3579C74.9927 65.5385 74.9279 65.7394 74.9072 65.9471C74.8864 66.1548 74.9101 66.3645 74.9768 66.5623L76.1517 70.1064L71.3049 74.9533L77.3928 58.75H79.7869L81.6963 63.5308L76.0812 64.6529Z" fill="#5FB5BF"/>
<path d="M52.0379 71.2168C50.717 73.4394 50.091 76.0062 50.2402 78.5873C50.3894 81.1684 51.3069 83.646 52.875 85.7016V91.0625H55.8125V85.1875C55.8128 84.8442 55.6928 84.5116 55.4733 84.2475C54.1488 82.6557 53.3499 80.6926 53.1866 78.6283C53.0233 76.5639 53.5035 74.4996 54.5612 72.7193L52.0379 71.2168Z" fill="#5FB5BF"/>
<path d="M79.3125 85.1875V91.0625H82.25V85.7016C83.8181 83.646 84.7357 81.1684 84.8849 78.5873C85.0341 76.0062 84.408 73.4394 83.0872 71.2168L80.5639 72.7193C81.6216 74.4996 82.1018 76.5639 81.9385 78.6283C81.7751 80.6926 80.9763 82.6557 79.6518 84.2475C79.4323 84.5116 79.3122 84.8442 79.3125 85.1875Z" fill="#5FB5BF"/>
<path d="M63.1562 33.0469C63.1562 32.6111 63.027 32.1852 62.785 31.8229C62.5429 31.4606 62.1988 31.1782 61.7962 31.0115C61.3937 30.8447 60.9507 30.8011 60.5233 30.8861C60.0959 30.9711 59.7034 31.1809 59.3953 31.489C59.0872 31.7971 58.8773 32.1897 58.7923 32.6171C58.7073 33.0444 58.751 33.4874 58.9177 33.89C59.0845 34.2925 59.3668 34.6366 59.7291 34.8787C60.0914 35.1208 60.5174 35.25 60.9531 35.25C61.5374 35.25 62.0978 35.0179 62.511 34.6047C62.9241 34.1916 63.1562 33.6312 63.1562 33.0469Z" fill="#5FB5BF"/>
<path d="M74.1719 35.25C74.6076 35.25 75.0336 35.1208 75.3959 34.8787C75.7582 34.6366 76.0405 34.2925 76.2073 33.89C76.374 33.4874 76.4177 33.0444 76.3327 32.6171C76.2477 32.1897 76.0378 31.7971 75.7297 31.489C75.4216 31.1809 75.0291 30.9711 74.6017 30.8861C74.1743 30.8011 73.7313 30.8447 73.3288 31.0115C72.9262 31.1782 72.5821 31.4606 72.34 31.8229C72.098 32.1852 71.9688 32.6111 71.9688 33.0469C71.9688 33.6312 72.2009 34.1916 72.614 34.6047C73.0272 35.0179 73.5876 35.25 74.1719 35.25Z" fill="#5FB5BF"/>
<path d="M67.5625 42.5938C68.7311 42.5938 69.8519 42.1295 70.6782 41.3032C71.5045 40.4769 71.9688 39.3561 71.9688 38.1875H69.0312C69.0312 38.577 68.8765 38.9506 68.6011 39.2261C68.3256 39.5015 67.952 39.6562 67.5625 39.6562C67.173 39.6562 66.7994 39.5015 66.5239 39.2261C66.2485 38.9506 66.0938 38.577 66.0938 38.1875H63.1562C63.1562 39.3561 63.6205 40.4769 64.4468 41.3032C65.2731 42.1295 66.3939 42.5938 67.5625 42.5938Z" fill="#5FB5BF"/>
<path d="M69.0312 85.1875H66.0938V88.125H69.0312V85.1875Z" fill="#5FB5BF"/>
<path d="M11.75 58.75H8.8125V61.6875H11.75V58.75Z" fill="#5FB5BF"/>
<path d="M11.75 64.625H8.8125V74.9062H11.75V64.625Z" fill="#5FB5BF"/>
<path d="M105.053 60.0769C98.3859 83.2885 80.0405 98 54.4236 98C28.8067 98 10 75.5811 10 49.9423C10 24.3036 54.9383 13 80.5552 13C106.172 13 112.566 33.9231 105.053 60.0769Z" fill="#5FB5BF" fill-opacity="0.12"/>
<path d="M80.7812 55.8125H74.9062V49.4014C76.7031 48.3709 78.259 46.9683 79.4698 45.2876C80.6806 43.6069 81.5183 41.687 81.9269 39.6563H83.7188C84.8874 39.6563 86.0081 39.1921 86.8344 38.3657C87.6608 37.5394 88.125 36.4186 88.125 35.25V32.3125C88.1212 31.4045 87.837 30.5197 87.3112 29.7794C86.7854 29.039 86.0436 28.4792 85.1875 28.1765V24.9688C85.1842 22.6738 84.671 20.4083 83.685 18.3359C84.6936 17.4434 85.484 16.3314 85.9953 15.0854C86.5066 13.8395 86.7253 12.4928 86.6345 11.1491C86.5436 9.8054 86.1457 8.50043 85.4713 7.33464C84.797 6.16886 83.8641 5.17333 82.7446 4.42469C81.625 3.67604 80.3487 3.19423 79.0137 3.01634C77.6787 2.83845 76.3207 2.96922 75.0441 3.39859C73.7676 3.82796 72.6067 4.54448 71.6505 5.493C70.6944 6.44152 69.9687 7.59676 69.5292 8.86981C69.1326 8.84338 68.7375 8.81253 68.3307 8.81253H66.7943C62.4184 8.72626 58.1868 10.3784 55.027 13.4069C51.8672 16.4354 50.037 20.5931 49.9375 24.9688V28.1765C49.0814 28.4792 48.3396 29.039 47.8138 29.7794C47.288 30.5197 47.0038 31.4045 47 32.3125V35.25C47.0041 36.1578 47.2884 37.0423 47.8142 37.7823C48.34 38.5224 49.0816 39.082 49.9375 39.3846V43.8804C49.9348 45.9386 50.6216 47.9385 51.8882 49.5608C53.1549 51.1831 54.9284 52.3344 56.9258 52.831L57.6367 49.9801C56.2755 49.6417 55.067 48.8571 54.2039 47.7515C53.3408 46.6459 52.873 45.283 52.875 43.8804V39.6563H53.1981C53.6071 41.687 54.445 43.607 55.6558 45.2878C56.8665 46.9687 58.4222 48.3717 60.2188 49.4029V55.8125H54.3438C52.9747 55.8124 51.6195 56.0865 50.3582 56.6188C49.0969 57.1511 47.955 57.9307 47 58.9116V58.75C47 57.1919 46.381 55.6976 45.2793 54.5958C44.1775 53.494 42.6831 52.875 41.125 52.875H8.8125C7.25435 52.875 5.76002 53.494 4.65825 54.5958C3.55647 55.6976 2.9375 57.1919 2.9375 58.75V80.7813C2.9375 82.3394 3.55647 83.8338 4.65825 84.9355C5.76002 86.0373 7.25435 86.6563 8.8125 86.6563H16.8172L16.1739 90.8393L19.0761 91.2799L21.8227 73.4375H27.9062V91.0625H30.8438V86.6563H41.125C42.1594 86.6502 43.1734 86.3683 44.0625 85.8397V91.0625H47V66.0938C47.0054 64.5606 47.4914 63.0678 48.3896 61.8253C49.2877 60.5827 50.5529 59.6531 52.007 59.1672L50.0418 64.0787C49.9617 64.2784 49.9265 64.4934 49.9387 64.7083C49.9509 64.9231 50.0102 65.1327 50.1123 65.3222C50.2145 65.5116 50.357 65.6763 50.5298 65.8046C50.7027 65.9328 50.9016 66.0215 51.1125 66.0644L56.8245 67.2071L55.883 70.0344C55.7964 70.2933 55.7837 70.5711 55.8462 70.8367C55.9088 71.1024 56.0441 71.3454 56.237 71.5384L66.5182 81.8197C66.5403 81.8417 66.5711 81.8491 66.5961 81.8711C66.6423 81.9172 66.6914 81.9604 66.7429 82.0004L66.7591 82.015C66.8119 82.0442 66.8669 82.0692 66.9236 82.0899C66.9662 82.1105 67.0044 82.134 67.0484 82.1502C67.0925 82.1663 67.0998 82.1751 67.1277 82.1839C67.4049 82.2721 67.7025 82.2721 67.9796 82.1839C68.0075 82.1751 68.0325 82.1604 68.0589 82.1502C68.0854 82.1399 68.1412 82.1105 68.1838 82.0899C68.2405 82.0692 68.2955 82.0442 68.3483 82.015L68.3644 82.0004C68.416 81.9604 68.4651 81.9172 68.5113 81.8711C68.5363 81.8491 68.5671 81.8417 68.5892 81.8197L78.8704 71.5384C79.0633 71.3454 79.1986 71.1024 79.2611 70.8367C79.3237 70.5711 79.3109 70.2933 79.2244 70.0344L78.2829 67.2071L84.0125 66.0644C84.2239 66.0223 84.4235 65.9341 84.597 65.8061C84.7706 65.6782 84.9138 65.5136 85.0165 65.324C85.1193 65.1345 85.1791 64.9247 85.1916 64.7094C85.2041 64.4942 85.1691 64.2788 85.0891 64.0787L83.1239 59.1672C84.5769 59.6541 85.8408 60.5842 86.7378 61.8266C87.6349 63.069 88.12 64.5614 88.125 66.0938V91.0625H91.0625V66.0938C91.0594 63.368 89.9752 60.7547 88.0478 58.8273C86.1203 56.8998 83.507 55.8156 80.7812 55.8125ZM44.0625 66.0938V80.7813C44.0625 81.5604 43.753 82.3075 43.2021 82.8584C42.6512 83.4093 41.9041 83.7188 41.125 83.7188H30.8438V71.9688C30.8438 71.5792 30.689 71.2057 30.4136 70.9302C30.1381 70.6548 29.7645 70.5 29.375 70.5H20.5625C20.2117 70.5002 19.8726 70.6258 19.6065 70.8543C19.3403 71.0827 19.1647 71.3989 19.1114 71.7455L17.2696 83.7188H8.8125C8.03343 83.7188 7.28626 83.4093 6.73537 82.8584C6.18449 82.3075 5.875 81.5604 5.875 80.7813V58.75C5.875 57.971 6.18449 57.2238 6.73537 56.6729C7.28626 56.122 8.03343 55.8125 8.8125 55.8125H41.125C41.9041 55.8125 42.6512 56.122 43.2021 56.6729C43.753 57.2238 44.0625 57.971 44.0625 58.75V66.0938ZM84.3856 31.023C84.6249 31.1434 84.8263 31.3275 84.9678 31.555C85.1093 31.7825 85.1853 32.0446 85.1875 32.3125V35.25C85.1875 35.6396 85.0328 36.0131 84.7573 36.2886C84.4819 36.564 84.1083 36.7188 83.7188 36.7188H82.25V34.2219L84.3856 31.023ZM77.8438 5.87503C78.9865 5.87554 80.1043 6.2093 81.0602 6.83545C82.0162 7.4616 82.7687 8.35294 83.2258 9.40031C83.6828 10.4477 83.8245 11.6056 83.6335 12.7323C83.4424 13.8589 82.9269 14.9054 82.1501 15.7436C79.7909 12.5391 76.377 10.2694 72.5092 9.33394C72.9705 8.30458 73.7193 7.43046 74.6658 6.8168C75.6122 6.20314 76.7158 5.87609 77.8438 5.87503ZM52.875 36.7188H51.4062C51.0167 36.7188 50.6431 36.564 50.3677 36.2886C50.0922 36.0131 49.9375 35.6396 49.9375 35.25V32.3125C49.9375 31.923 50.0922 31.5494 50.3677 31.274C50.6431 30.9985 51.0167 30.8438 51.4062 30.8438H52.875V36.7188ZM52.9455 27.9063L52.875 24.9688C52.9742 21.3722 54.4949 17.9615 57.1038 15.4838C59.7128 13.0062 63.1974 11.6636 66.7943 11.75H68.3307C71.9276 11.6636 75.4122 13.0062 78.0212 15.4838C80.6301 17.9615 82.1508 21.3722 82.25 24.9688V28.9344L80.5653 31.4621C77.6762 28.325 75.7079 24.4519 74.8769 20.2688C74.8223 19.9975 74.6923 19.7471 74.5017 19.5465C74.311 19.3459 74.0676 19.2033 73.7995 19.135C73.5313 19.0667 73.2493 19.0755 72.986 19.1605C72.7226 19.2454 72.4886 19.4031 72.311 19.6152C69.8106 22.2338 66.8056 24.3186 63.4772 25.7436C60.1488 27.1686 56.5661 27.9043 52.9455 27.9063ZM55.883 38.0098C55.8328 37.5813 55.8092 37.1502 55.8125 36.7188V30.6969C62.0509 30.107 67.9431 27.5603 72.6473 23.4207C73.9021 27.5065 76.1403 31.2219 79.1656 34.241L79.3125 34.3879V36.7188C79.313 37.1562 79.2865 37.5933 79.2332 38.0274C79.0209 39.9827 78.3182 41.8528 77.1903 43.464C76.0623 45.0752 74.5456 46.3753 72.781 47.2438C71.1544 48.0354 69.3692 48.4467 67.5603 48.4467C65.7514 48.4467 63.9662 48.0354 62.3396 47.2438C60.5735 46.373 59.0562 45.0698 57.9287 43.4554C56.8012 41.841 56.1 39.9678 55.8903 38.0098H55.883ZM74.282 58.6795L72.0525 64.625H63.0725L60.843 58.6795C61.4977 58.5371 62.0841 58.1752 62.5049 57.6537C62.9256 57.1322 63.1555 56.4826 63.1562 55.8125V50.7057C66.0195 51.6399 69.1055 51.6399 71.9688 50.7057V55.8125C71.9695 56.4826 72.1994 57.1322 72.6201 57.6537C73.0409 58.1752 73.6273 58.5371 74.282 58.6795ZM58.963 70.102L60.138 66.5579C60.2046 66.3601 60.2283 66.1504 60.2076 65.9427C60.1868 65.735 60.122 65.5341 60.0175 65.3535C59.913 65.1728 59.7711 65.0165 59.6015 64.8949C59.4318 64.7734 59.2382 64.6894 59.0335 64.6485L53.4214 63.5264L55.3381 58.75H57.7322L63.8054 74.9474L58.963 70.102ZM67.5625 76.5968L64.1741 67.5625H70.9509L67.5625 76.5968ZM76.0812 64.6529C75.8766 64.6938 75.6829 64.7778 75.5133 64.8993C75.3436 65.0209 75.2018 65.1772 75.0972 65.3579C74.9927 65.5385 74.9279 65.7394 74.9072 65.9471C74.8864 66.1548 74.9101 66.3645 74.9768 66.5623L76.1517 70.1064L71.3049 74.9533L77.3928 58.75H79.7869L81.6963 63.5308L76.0812 64.6529Z" fill="#5FB5BF"/>
<path d="M52.0379 71.2168C50.717 73.4394 50.091 76.0062 50.2402 78.5873C50.3894 81.1684 51.3069 83.646 52.875 85.7016V91.0625H55.8125V85.1875C55.8128 84.8442 55.6928 84.5116 55.4733 84.2475C54.1488 82.6557 53.3499 80.6926 53.1866 78.6283C53.0233 76.5639 53.5035 74.4996 54.5612 72.7193L52.0379 71.2168Z" fill="#5FB5BF"/>
<path d="M79.3125 85.1875V91.0625H82.25V85.7016C83.8181 83.646 84.7357 81.1684 84.8849 78.5873C85.0341 76.0062 84.408 73.4394 83.0872 71.2168L80.5639 72.7193C81.6216 74.4996 82.1018 76.5639 81.9385 78.6283C81.7751 80.6926 80.9763 82.6557 79.6518 84.2475C79.4323 84.5116 79.3122 84.8442 79.3125 85.1875Z" fill="#5FB5BF"/>
<path d="M63.1562 33.0469C63.1562 32.6111 63.027 32.1852 62.785 31.8229C62.5429 31.4606 62.1988 31.1782 61.7962 31.0115C61.3937 30.8447 60.9507 30.8011 60.5233 30.8861C60.0959 30.9711 59.7034 31.1809 59.3953 31.489C59.0872 31.7971 58.8773 32.1897 58.7923 32.6171C58.7073 33.0444 58.751 33.4874 58.9177 33.89C59.0845 34.2925 59.3668 34.6366 59.7291 34.8787C60.0914 35.1208 60.5174 35.25 60.9531 35.25C61.5374 35.25 62.0978 35.0179 62.511 34.6047C62.9241 34.1916 63.1562 33.6312 63.1562 33.0469Z" fill="#5FB5BF"/>
<path d="M74.1719 35.25C74.6076 35.25 75.0336 35.1208 75.3959 34.8787C75.7582 34.6366 76.0405 34.2925 76.2073 33.89C76.374 33.4874 76.4177 33.0444 76.3327 32.6171C76.2477 32.1897 76.0378 31.7971 75.7297 31.489C75.4216 31.1809 75.0291 30.9711 74.6017 30.8861C74.1743 30.8011 73.7313 30.8447 73.3288 31.0115C72.9262 31.1782 72.5821 31.4606 72.34 31.8229C72.098 32.1852 71.9688 32.6111 71.9688 33.0469C71.9688 33.6312 72.2009 34.1916 72.614 34.6047C73.0272 35.0179 73.5876 35.25 74.1719 35.25Z" fill="#5FB5BF"/>
<path d="M67.5625 42.5938C68.7311 42.5938 69.8519 42.1295 70.6782 41.3032C71.5045 40.4769 71.9688 39.3561 71.9688 38.1875H69.0312C69.0312 38.577 68.8765 38.9506 68.6011 39.2261C68.3256 39.5015 67.952 39.6562 67.5625 39.6562C67.173 39.6562 66.7994 39.5015 66.5239 39.2261C66.2485 38.9506 66.0938 38.577 66.0938 38.1875H63.1562C63.1562 39.3561 63.6205 40.4769 64.4468 41.3032C65.2731 42.1295 66.3939 42.5938 67.5625 42.5938Z" fill="#5FB5BF"/>
<path d="M69.0312 85.1875H66.0938V88.125H69.0312V85.1875Z" fill="#5FB5BF"/>
<path d="M11.75 58.75H8.8125V61.6875H11.75V58.75Z" fill="#5FB5BF"/>
<path d="M11.75 64.625H8.8125V74.9062H11.75V64.625Z" fill="#5FB5BF"/>
</svg>
