<svg width="102" height="100" viewBox="0 0 102 100" fill="none" xmlns="http://www.w3.org/2000/svg">
<path d="M4.93808 50.07C12.2954 27.0678 31.0716 12.9102 56.677 13.6746C82.2825 14.4391 100.412 37.4092 99.6468 63.0365C98.8817 88.6639 53.6262 98.6214 28.0207 97.857C2.41521 97.0926 -3.35184 75.988 4.93808 50.07Z" fill="#FFF3DB"/>
<path d="M50.3129 50.3643L40.8175 47.4848L39.7845 45.4189C39.4626 44.7748 38.7265 44.4769 38.0605 44.6832V44.3237C41.9927 41.4831 44.6612 36.9964 45.0396 31.8807C46.8824 31.3658 48.3324 29.8674 48.6359 27.9996C48.8275 26.8214 48.5773 25.6615 48.0046 24.6974C49.8377 23.7377 51.0922 21.8177 51.0922 19.6093C51.0922 17.6065 50.0308 15.7816 48.3805 14.7535C48.4716 14.3792 48.5182 13.9934 48.5182 13.6032C48.5182 10.9111 46.328 8.72091 43.6359 8.72091C42.99 8.72091 42.3736 8.84814 41.809 9.07688C39.0144 6.53808 35.4361 5.14783 31.6234 5.14783H24.7592C20.9634 5.14783 17.3702 6.5404 14.5732 9.07669C14.0086 8.84795 13.3924 8.72091 12.7468 8.72091C10.0546 8.72091 7.86444 10.9111 7.86444 13.6032C7.86444 13.9936 7.91104 14.3794 8.00211 14.7535C6.3516 15.7816 5.29044 17.6065 5.29044 19.6093C5.29044 21.8165 6.54341 23.7354 8.37452 24.6957C7.80314 25.6565 7.55429 26.816 7.74668 27.9996C8.05026 29.8674 9.50026 31.3658 11.343 31.8807C11.7206 36.9894 14.3826 41.4705 18.3058 44.3117V44.6778C17.6441 44.4813 16.9173 44.78 16.5979 45.4187L15.5657 47.4828L5.70249 50.4418C2.8897 51.2858 1 53.8258 1 56.7623V92.4013C1 93.2022 1.6493 93.8515 2.45019 93.8515C3.25109 93.8515 3.90039 93.2022 3.90039 92.4013V56.7623C3.90039 56.656 3.90522 56.5508 3.91392 56.4464L9.71063 62.2431C10.7333 63.2657 11.2964 64.6253 11.2964 66.0714V92.4011C11.2964 93.202 11.9457 93.8513 12.7466 93.8513C13.5475 93.8513 14.1968 93.202 14.1968 92.4011V66.0714C14.1968 63.8505 13.3319 61.7626 11.7614 60.1921L5.37513 53.8059C5.71699 53.5506 6.10622 53.3489 6.53587 53.2202L13.0697 51.2601C13.5813 52.6981 17.3808 62.5741 27.3867 69.2446C27.6304 69.407 27.9107 69.4882 28.1911 69.4882C28.4715 69.4882 28.7519 69.407 28.9955 69.2446C39.3365 62.3506 43.0254 52.1596 43.329 51.2773L49.4714 53.1399C49.6118 53.1825 49.7533 53.2028 49.8928 53.2028C50.5148 53.2028 51.09 52.7992 51.2799 52.1729C51.5123 51.4065 51.0794 50.5969 50.3129 50.3643ZM38.4915 49.3186L33.5909 55.4446C33.5236 55.5287 33.4427 55.5459 33.3789 55.5443C33.3196 55.5434 33.2351 55.5242 33.1705 55.438L30.3941 51.7359L37.839 48.0134L38.4915 49.3186ZM28.1911 49.5945L21.206 46.102V46.0048C23.3361 46.9758 25.7014 47.5178 28.1911 47.5178C30.6746 47.5178 33.0342 46.9781 35.1602 46.0115V46.11L28.1911 49.5945ZM43.6357 11.6215C44.7285 11.6215 45.6176 12.5106 45.6176 13.6034C45.6176 13.9905 45.5035 14.3674 45.2879 14.6932C45.0317 15.0801 44.9762 15.5662 45.1386 16.0009C45.3011 16.4355 45.6615 16.7662 46.1083 16.8907C47.335 17.2322 48.1918 18.3502 48.1918 19.6095C48.1918 21.1755 46.9177 22.4496 45.3517 22.4496C43.7857 22.4496 42.5117 21.1755 42.5117 19.6095C42.5117 18.9078 42.7814 18.2282 43.2712 17.6961C43.5852 17.355 43.7171 16.8843 43.6262 16.4297C43.5353 15.9752 43.2325 15.5913 42.8118 15.3972C42.1083 15.0726 41.6537 14.3685 41.6537 13.6034C41.6537 12.5106 42.5428 11.6215 43.6357 11.6215ZM8.19044 19.6095C8.19063 18.3504 9.04722 17.2324 10.2739 16.8909C10.7209 16.7664 11.0814 16.4357 11.2436 16.0011C11.4058 15.5664 11.3503 15.0803 11.0943 14.6934C10.8787 14.3676 10.7646 13.9907 10.7646 13.6036C10.7646 12.5107 11.6537 11.6217 12.7466 11.6217C13.8394 11.6217 14.7285 12.5106 14.7285 13.6034C14.7285 14.3685 14.2739 15.0728 13.5705 15.3972C13.1495 15.5913 12.8467 15.9752 12.756 16.4297C12.6652 16.8843 12.797 17.355 13.111 17.6961C13.6008 18.2282 13.8706 18.9078 13.8706 19.6095C13.8706 21.1755 12.5965 22.4496 11.0305 22.4496C9.46448 22.4496 8.19044 21.1755 8.19044 19.6095ZM14.1968 30.6231C14.1968 29.8222 13.5475 29.1729 12.7466 29.1729C11.68 29.1729 10.761 28.4685 10.6092 27.5344C10.4361 26.4701 11.0873 25.4911 12.1237 25.2576C12.1798 25.245 12.2338 25.2284 12.2868 25.2098C14.8495 24.6351 16.7707 22.3432 16.7707 19.6097C16.7707 18.7228 16.5627 17.8567 16.1706 17.0719C17.0855 16.1691 17.6289 14.9239 17.6289 13.6034C17.6289 12.6244 17.3381 11.7124 16.84 10.9472C19.0534 9.0736 21.8313 8.04841 24.759 8.04841H31.6232C34.5638 8.04841 37.3335 9.06857 39.5446 10.9438C39.0449 11.7097 38.7533 12.6229 38.7533 13.6034C38.7533 14.9239 39.2967 16.1691 40.2117 17.0719C39.8193 17.8567 39.6115 18.7228 39.6115 19.6097C39.6115 22.3984 41.6108 24.7279 44.2511 25.243C44.2956 25.2612 44.3412 25.2777 44.3882 25.2916C45.2175 25.5393 45.9594 26.3891 45.7732 27.5345C45.6215 28.4687 44.7024 29.1731 43.6359 29.1731C42.835 29.1731 42.1857 29.8224 42.1857 30.6233C42.1857 38.3398 35.9079 44.6176 28.1913 44.6176C20.4747 44.6176 14.1968 38.3396 14.1968 30.6231ZM18.0838 48.932L18.5433 48.0134L25.9884 51.7359L23.2119 55.438C23.1473 55.5242 23.0628 55.5434 23.0035 55.5443C22.9401 55.5494 22.8588 55.5287 22.7916 55.4446L17.9295 49.3671C18.0036 49.2318 18.0556 49.085 18.0838 48.932ZM28.1911 66.2777C21.6989 61.6636 18.2047 55.6248 16.7197 52.4976L20.5267 57.2563C21.1325 58.0135 22.0307 58.4447 22.9977 58.4447C23.0147 58.4447 23.0317 58.4445 23.0487 58.4443C24.0351 58.4289 24.9402 57.9673 25.532 57.1782L26.7407 55.5666V61.5124C26.7407 62.3133 27.39 62.9626 28.1909 62.9626C28.9918 62.9626 29.6411 62.3133 29.6411 61.5124V55.5666L30.8498 57.1782C31.4417 57.9675 32.3468 58.4289 33.3331 58.4443C33.3501 58.4445 33.3671 58.4447 33.3842 58.4447C34.3511 58.4447 35.2493 58.0135 35.8551 57.2563L39.6737 52.4829C38.2007 55.6016 34.717 61.6421 28.1911 66.2777Z" fill="#D0935A"/>
<path d="M32.5368 34.6451C31.9148 34.1404 31.0016 34.2357 30.4971 34.8578C29.8803 35.6185 29.0614 36.0373 28.1913 36.0373C27.3212 36.0373 26.5023 35.6185 25.8855 34.8578C25.3812 34.2357 24.4678 34.1406 23.8457 34.6451C23.2237 35.1496 23.1286 36.0628 23.633 36.6848C24.7942 38.1165 26.4557 38.9375 28.1915 38.9375C29.9273 38.9375 31.5882 38.1163 32.7495 36.6848C33.254 36.0628 33.1589 35.1496 32.5368 34.6451Z" fill="#D0935A"/>
<path d="M21.3268 25.7407C20.5259 25.7407 19.8766 26.39 19.8766 27.1909V28.907C19.8766 29.7079 20.5259 30.3572 21.3268 30.3572C22.1277 30.3572 22.777 29.7079 22.777 28.907V27.1909C22.777 26.39 22.1277 25.7407 21.3268 25.7407Z" fill="#D0935A"/>
<path d="M35.0554 25.7407C34.2545 25.7407 33.6052 26.39 33.6052 27.1909V28.907C33.6052 29.7079 34.2545 30.3572 35.0554 30.3572C35.8562 30.3572 36.5055 29.7079 36.5055 28.907V27.1909C36.5055 26.39 35.8562 25.7407 35.0554 25.7407Z" fill="#D0935A"/>
<path d="M49.8092 57.0546C49.2429 56.4883 48.3246 56.4883 47.7585 57.0546L44.6208 60.1923C43.0504 61.7627 42.1855 63.8506 42.1855 66.0716V92.4012C42.1855 93.2021 42.8348 93.8514 43.6357 93.8514C44.4366 93.8514 45.0859 93.2021 45.0859 92.4012V66.0716C45.0859 64.6254 45.6491 63.2657 46.6716 62.2432L49.8092 59.1056C50.3756 58.5393 50.3756 57.621 49.8092 57.0546Z" fill="#D0935A"/>
<path d="M78.8704 46.6575C78.2484 46.1529 77.335 46.2482 76.8307 46.8702C76.2139 47.6309 75.395 48.0497 74.5249 48.0497C73.6548 48.0497 72.8359 47.6309 72.2191 46.8702C71.7148 46.2482 70.8014 46.1531 70.1794 46.6575C69.5573 47.162 69.4622 48.0752 69.9667 48.6973C71.1276 50.1287 72.7889 50.9499 74.5247 50.9499C76.2605 50.9499 77.9218 50.1287 79.0831 48.6973C79.5876 48.0752 79.4925 47.162 78.8704 46.6575Z" fill="#D0935A"/>
<path d="M59.0802 72.0743C58.2793 72.0743 57.63 72.7236 57.63 73.5245V92.4012C57.63 93.2021 58.2793 93.8514 59.0802 93.8514C59.8811 93.8514 60.5304 93.2021 60.5304 92.4012V73.5245C60.5304 72.7236 59.8811 72.0743 59.0802 72.0743Z" fill="#D0935A"/>
<path d="M89.9694 72.0743C89.1685 72.0743 88.5192 72.7236 88.5192 73.5245V92.4012C88.5192 93.2021 89.1685 93.8514 89.9694 93.8514C90.7703 93.8514 91.4196 93.2021 91.4196 92.4012V73.5245C91.4196 72.7236 90.7703 72.0743 89.9694 72.0743Z" fill="#D0935A"/>
<path d="M95.1519 62.1641C96.0578 61.0152 96.5677 59.583 96.5677 58.08C96.5677 55.6361 95.2273 53.449 93.1299 52.3113C93.1338 52.232 93.1355 52.153 93.1355 52.0739C93.1355 50.1888 92.2229 48.4633 90.7331 47.4014C90.8317 47.0668 90.9233 46.73 91.0007 46.3889C91.1886 45.5608 91.3085 44.6856 91.3648 43.7266C93.6474 40.3586 94.8516 36.4296 94.8516 32.3391C94.8516 21.1308 85.733 12.0122 74.5247 12.0122C63.3165 12.0122 54.1979 21.1308 54.1979 32.3391C54.1979 36.43 55.4023 40.359 57.6849 43.7268C57.7412 44.6864 57.861 45.5613 58.0488 46.3887C58.1261 46.7296 58.2178 47.0665 58.3164 47.4012C56.8266 48.4631 55.9139 50.1886 55.9139 52.0739C55.9139 52.153 55.9159 52.232 55.9195 52.3113C53.822 53.449 52.4818 55.6363 52.4818 58.08C52.4818 59.583 52.9919 61.0152 53.8976 62.1641C50.909 63.9573 49.0497 67.1785 49.0497 70.7533V92.402C49.0497 93.2029 49.699 93.8522 50.4999 93.8522C51.3008 93.8522 51.9501 93.2029 51.9501 92.402V70.7533C51.9501 67.8208 53.7094 65.2223 56.4321 64.1331L56.7096 64.0221C60.9989 69.819 67.6067 73.2587 74.5249 73.2587C81.5377 73.2587 88.0007 69.8983 92.3389 64.0217L92.6175 64.1331C95.3404 65.2223 97.0996 67.8208 97.0996 70.7533V92.4012C97.0996 93.2021 97.7489 93.8514 98.5498 93.8514C99.3507 93.8514 100 93.2021 100 92.4012V70.7533C99.9998 67.1785 98.1404 63.9573 95.1519 62.1641ZM57.0983 32.3391C57.0983 22.7301 64.9158 14.9126 74.5247 14.9126C84.1337 14.9126 91.9512 22.7301 91.9512 32.3391C91.9512 34.7833 91.4491 37.1595 90.483 39.3526C88.3936 34.8564 83.7495 33.5965 79.2317 32.3741C75.5793 31.3858 71.8026 30.3637 68.5662 27.7746C68.2241 27.501 67.7765 27.3964 67.3492 27.4906C66.9215 27.5846 66.5591 27.8667 66.3632 28.2584C66.3482 28.2884 64.8289 31.2754 61.8636 32.7581C61.1472 33.1162 60.8568 33.9873 61.2151 34.7037C61.5732 35.4201 62.444 35.7107 63.1606 35.3522C65.521 34.1719 67.1473 32.2979 68.0642 31.0004C71.4422 33.2709 75.1539 34.2754 78.4741 35.1737C79.5639 35.4686 80.5668 35.7482 81.4835 36.0396C81.4518 36.039 81.4205 36.0373 81.3888 36.0373C79.6215 36.0373 78.0705 36.981 77.2136 38.3912C76.4119 37.9786 75.4917 37.7533 74.5247 37.7533C73.5576 37.7533 72.6372 37.9786 71.8357 38.3912C70.9785 36.9812 69.4276 36.0373 67.6605 36.0373C64.9683 36.0373 62.7782 38.2274 62.7782 40.9196C62.7782 43.6117 64.9683 45.8019 67.6605 45.8019C70.1695 45.8019 72.2417 43.8992 72.5121 41.461C72.9852 40.9575 73.725 40.6537 74.5247 40.6537C75.3243 40.6537 76.0641 40.9575 76.5372 41.461C76.8075 43.8992 78.8798 45.8019 81.3888 45.8019C84.0809 45.8019 86.2711 43.6117 86.2711 40.9196C86.2711 39.5092 85.6694 38.2373 84.7099 37.3453C86.7839 38.4755 88.0595 40.0533 88.5322 42.84C88.5079 42.9373 88.4924 43.0382 88.4885 43.1424C88.4539 44.1094 88.3503 44.9614 88.172 45.7472C87.4817 48.7893 85.7566 51.5516 83.3146 53.5256C80.8019 55.5567 77.7625 56.6302 74.5245 56.6302C71.2865 56.6302 68.2469 55.5567 65.7344 53.5256C63.2925 51.5518 61.5676 48.7893 60.8771 45.7472C60.6992 44.9629 60.5955 44.1117 60.5607 43.1449C60.5468 42.7609 60.3846 42.4162 60.1301 42.1652C58.1457 39.2646 57.0983 35.8727 57.0983 32.3391ZM83.3709 40.9194C83.3709 42.0122 82.4818 42.9013 81.389 42.9013C80.2961 42.9013 79.407 42.0122 79.407 40.9194C79.407 39.8265 80.2961 38.9374 81.389 38.9374C82.4818 38.9374 83.3709 39.8265 83.3709 40.9194ZM69.6424 40.9194C69.6424 42.0122 68.7534 42.9013 67.6605 42.9013C66.5676 42.9013 65.6786 42.0122 65.6786 40.9194C65.6786 39.8265 66.5676 38.9374 67.6605 38.9374C68.7534 38.9374 69.6424 39.8265 69.6424 40.9194ZM82.862 60.2263C80.6072 62.3194 77.6577 63.4938 74.5245 63.4938C71.3946 63.4938 68.4436 62.3184 66.1881 60.2259C67.0938 59.8295 67.8438 59.1788 68.3585 58.36C70.3118 59.1251 72.4051 59.5302 74.5247 59.5302C76.6443 59.5302 78.7376 59.1251 80.691 58.36C81.2059 59.1792 81.9563 59.8299 82.862 60.2263ZM56.6949 60.9042C55.8671 60.2046 55.3824 59.1759 55.3824 58.0798C55.3822 56.4763 56.4221 55.0688 57.9697 54.5775C58.7107 54.3424 59.1341 53.5649 58.9303 52.8148C58.8511 52.5238 58.8143 52.2883 58.8143 52.0739C58.8143 51.4014 59.0502 50.771 59.4574 50.2741C60.5323 52.3873 62.0482 54.2751 63.9113 55.781C64.4878 56.2469 65.0938 56.6718 65.7234 57.0552C65.5196 57.2899 65.2623 57.4773 64.9645 57.5964L56.6949 60.9042ZM74.5247 70.3583C68.6795 70.3583 63.2778 67.658 59.5062 62.9035L63.2689 61.3986C66.1475 64.5844 70.1999 66.3944 74.5249 66.3944C78.854 66.3944 82.9022 64.585 85.7805 61.3984L89.5447 62.9041C85.7713 67.6571 80.3605 70.3583 74.5247 70.3583ZM92.3546 60.9044L84.0848 57.5964C83.787 57.4773 83.5298 57.2899 83.326 57.0552C83.9554 56.6716 84.5616 56.2469 85.1382 55.781C87.0012 54.2751 88.5172 52.3871 89.592 50.2741C89.9993 50.771 90.2351 51.4014 90.2351 52.0739C90.2351 52.2883 90.1984 52.5238 90.1191 52.8148C89.9151 53.5649 90.3388 54.3424 91.0797 54.5775C92.6274 55.0688 93.6673 56.4763 93.6673 58.08C93.6673 59.1761 93.1823 60.2048 92.3546 60.9044Z" fill="#D0935A"/>
<path d="M4.93808 50.07C12.2954 27.0678 31.0716 12.9102 56.677 13.6746C82.2825 14.4391 100.412 37.4092 99.6468 63.0365C98.8817 88.6639 53.6262 98.6214 28.0207 97.857C2.41521 97.0926 -3.35184 75.988 4.93808 50.07Z" fill="#FFF3DB"/>
<path d="M50.3129 50.3643L40.8175 47.4848L39.7845 45.4189C39.4626 44.7748 38.7265 44.4769 38.0605 44.6832V44.3237C41.9927 41.4831 44.6612 36.9964 45.0396 31.8807C46.8824 31.3658 48.3324 29.8674 48.6359 27.9996C48.8275 26.8214 48.5773 25.6615 48.0046 24.6974C49.8377 23.7377 51.0922 21.8177 51.0922 19.6093C51.0922 17.6065 50.0308 15.7816 48.3805 14.7535C48.4716 14.3792 48.5182 13.9934 48.5182 13.6032C48.5182 10.9111 46.328 8.72091 43.6359 8.72091C42.99 8.72091 42.3736 8.84814 41.809 9.07688C39.0144 6.53808 35.4361 5.14783 31.6234 5.14783H24.7592C20.9634 5.14783 17.3702 6.5404 14.5732 9.07669C14.0086 8.84795 13.3924 8.72091 12.7468 8.72091C10.0546 8.72091 7.86444 10.9111 7.86444 13.6032C7.86444 13.9936 7.91104 14.3794 8.00211 14.7535C6.3516 15.7816 5.29044 17.6065 5.29044 19.6093C5.29044 21.8165 6.54341 23.7354 8.37452 24.6957C7.80314 25.6565 7.55429 26.816 7.74668 27.9996C8.05026 29.8674 9.50026 31.3658 11.343 31.8807C11.7206 36.9894 14.3826 41.4705 18.3058 44.3117V44.6778C17.6441 44.4813 16.9173 44.78 16.5979 45.4187L15.5657 47.4828L5.70249 50.4418C2.8897 51.2858 1 53.8258 1 56.7623V92.4013C1 93.2022 1.6493 93.8515 2.45019 93.8515C3.25109 93.8515 3.90039 93.2022 3.90039 92.4013V56.7623C3.90039 56.656 3.90522 56.5508 3.91392 56.4464L9.71063 62.2431C10.7333 63.2657 11.2964 64.6253 11.2964 66.0714V92.4011C11.2964 93.202 11.9457 93.8513 12.7466 93.8513C13.5475 93.8513 14.1968 93.202 14.1968 92.4011V66.0714C14.1968 63.8505 13.3319 61.7626 11.7614 60.1921L5.37513 53.8059C5.71699 53.5506 6.10622 53.3489 6.53587 53.2202L13.0697 51.2601C13.5813 52.6981 17.3808 62.5741 27.3867 69.2446C27.6304 69.407 27.9107 69.4882 28.1911 69.4882C28.4715 69.4882 28.7519 69.407 28.9955 69.2446C39.3365 62.3506 43.0254 52.1596 43.329 51.2773L49.4714 53.1399C49.6118 53.1825 49.7533 53.2028 49.8928 53.2028C50.5148 53.2028 51.09 52.7992 51.2799 52.1729C51.5123 51.4065 51.0794 50.5969 50.3129 50.3643ZM38.4915 49.3186L33.5909 55.4446C33.5236 55.5287 33.4427 55.5459 33.3789 55.5443C33.3196 55.5434 33.2351 55.5242 33.1705 55.438L30.3941 51.7359L37.839 48.0134L38.4915 49.3186ZM28.1911 49.5945L21.206 46.102V46.0048C23.3361 46.9758 25.7014 47.5178 28.1911 47.5178C30.6746 47.5178 33.0342 46.9781 35.1602 46.0115V46.11L28.1911 49.5945ZM43.6357 11.6215C44.7285 11.6215 45.6176 12.5106 45.6176 13.6034C45.6176 13.9905 45.5035 14.3674 45.2879 14.6932C45.0317 15.0801 44.9762 15.5662 45.1386 16.0009C45.3011 16.4355 45.6615 16.7662 46.1083 16.8907C47.335 17.2322 48.1918 18.3502 48.1918 19.6095C48.1918 21.1755 46.9177 22.4496 45.3517 22.4496C43.7857 22.4496 42.5117 21.1755 42.5117 19.6095C42.5117 18.9078 42.7814 18.2282 43.2712 17.6961C43.5852 17.355 43.7171 16.8843 43.6262 16.4297C43.5353 15.9752 43.2325 15.5913 42.8118 15.3972C42.1083 15.0726 41.6537 14.3685 41.6537 13.6034C41.6537 12.5106 42.5428 11.6215 43.6357 11.6215ZM8.19044 19.6095C8.19063 18.3504 9.04722 17.2324 10.2739 16.8909C10.7209 16.7664 11.0814 16.4357 11.2436 16.0011C11.4058 15.5664 11.3503 15.0803 11.0943 14.6934C10.8787 14.3676 10.7646 13.9907 10.7646 13.6036C10.7646 12.5107 11.6537 11.6217 12.7466 11.6217C13.8394 11.6217 14.7285 12.5106 14.7285 13.6034C14.7285 14.3685 14.2739 15.0728 13.5705 15.3972C13.1495 15.5913 12.8467 15.9752 12.756 16.4297C12.6652 16.8843 12.797 17.355 13.111 17.6961C13.6008 18.2282 13.8706 18.9078 13.8706 19.6095C13.8706 21.1755 12.5965 22.4496 11.0305 22.4496C9.46448 22.4496 8.19044 21.1755 8.19044 19.6095ZM14.1968 30.6231C14.1968 29.8222 13.5475 29.1729 12.7466 29.1729C11.68 29.1729 10.761 28.4685 10.6092 27.5344C10.4361 26.4701 11.0873 25.4911 12.1237 25.2576C12.1798 25.245 12.2338 25.2284 12.2868 25.2098C14.8495 24.6351 16.7707 22.3432 16.7707 19.6097C16.7707 18.7228 16.5627 17.8567 16.1706 17.0719C17.0855 16.1691 17.6289 14.9239 17.6289 13.6034C17.6289 12.6244 17.3381 11.7124 16.84 10.9472C19.0534 9.0736 21.8313 8.04841 24.759 8.04841H31.6232C34.5638 8.04841 37.3335 9.06857 39.5446 10.9438C39.0449 11.7097 38.7533 12.6229 38.7533 13.6034C38.7533 14.9239 39.2967 16.1691 40.2117 17.0719C39.8193 17.8567 39.6115 18.7228 39.6115 19.6097C39.6115 22.3984 41.6108 24.7279 44.2511 25.243C44.2956 25.2612 44.3412 25.2777 44.3882 25.2916C45.2175 25.5393 45.9594 26.3891 45.7732 27.5345C45.6215 28.4687 44.7024 29.1731 43.6359 29.1731C42.835 29.1731 42.1857 29.8224 42.1857 30.6233C42.1857 38.3398 35.9079 44.6176 28.1913 44.6176C20.4747 44.6176 14.1968 38.3396 14.1968 30.6231ZM18.0838 48.932L18.5433 48.0134L25.9884 51.7359L23.2119 55.438C23.1473 55.5242 23.0628 55.5434 23.0035 55.5443C22.9401 55.5494 22.8588 55.5287 22.7916 55.4446L17.9295 49.3671C18.0036 49.2318 18.0556 49.085 18.0838 48.932ZM28.1911 66.2777C21.6989 61.6636 18.2047 55.6248 16.7197 52.4976L20.5267 57.2563C21.1325 58.0135 22.0307 58.4447 22.9977 58.4447C23.0147 58.4447 23.0317 58.4445 23.0487 58.4443C24.0351 58.4289 24.9402 57.9673 25.532 57.1782L26.7407 55.5666V61.5124C26.7407 62.3133 27.39 62.9626 28.1909 62.9626C28.9918 62.9626 29.6411 62.3133 29.6411 61.5124V55.5666L30.8498 57.1782C31.4417 57.9675 32.3468 58.4289 33.3331 58.4443C33.3501 58.4445 33.3671 58.4447 33.3842 58.4447C34.3511 58.4447 35.2493 58.0135 35.8551 57.2563L39.6737 52.4829C38.2007 55.6016 34.717 61.6421 28.1911 66.2777Z" fill="#D0935A"/>
<path d="M32.5368 34.6451C31.9148 34.1404 31.0016 34.2357 30.4971 34.8578C29.8803 35.6185 29.0614 36.0373 28.1913 36.0373C27.3212 36.0373 26.5023 35.6185 25.8855 34.8578C25.3812 34.2357 24.4678 34.1406 23.8457 34.6451C23.2237 35.1496 23.1286 36.0628 23.633 36.6848C24.7942 38.1165 26.4557 38.9375 28.1915 38.9375C29.9273 38.9375 31.5882 38.1163 32.7495 36.6848C33.254 36.0628 33.1589 35.1496 32.5368 34.6451Z" fill="#D0935A"/>
<path d="M21.3268 25.7407C20.5259 25.7407 19.8766 26.39 19.8766 27.1909V28.907C19.8766 29.7079 20.5259 30.3572 21.3268 30.3572C22.1277 30.3572 22.777 29.7079 22.777 28.907V27.1909C22.777 26.39 22.1277 25.7407 21.3268 25.7407Z" fill="#D0935A"/>
<path d="M35.0554 25.7407C34.2545 25.7407 33.6052 26.39 33.6052 27.1909V28.907C33.6052 29.7079 34.2545 30.3572 35.0554 30.3572C35.8562 30.3572 36.5055 29.7079 36.5055 28.907V27.1909C36.5055 26.39 35.8562 25.7407 35.0554 25.7407Z" fill="#D0935A"/>
<path d="M49.8092 57.0546C49.2429 56.4883 48.3246 56.4883 47.7585 57.0546L44.6208 60.1923C43.0504 61.7627 42.1855 63.8506 42.1855 66.0716V92.4012C42.1855 93.2021 42.8348 93.8514 43.6357 93.8514C44.4366 93.8514 45.0859 93.2021 45.0859 92.4012V66.0716C45.0859 64.6254 45.6491 63.2657 46.6716 62.2432L49.8092 59.1056C50.3756 58.5393 50.3756 57.621 49.8092 57.0546Z" fill="#D0935A"/>
<path d="M78.8704 46.6575C78.2484 46.1529 77.335 46.2482 76.8307 46.8702C76.2139 47.6309 75.395 48.0497 74.5249 48.0497C73.6548 48.0497 72.8359 47.6309 72.2191 46.8702C71.7148 46.2482 70.8014 46.1531 70.1794 46.6575C69.5573 47.162 69.4622 48.0752 69.9667 48.6973C71.1276 50.1287 72.7889 50.9499 74.5247 50.9499C76.2605 50.9499 77.9218 50.1287 79.0831 48.6973C79.5876 48.0752 79.4925 47.162 78.8704 46.6575Z" fill="#D0935A"/>
<path d="M59.0802 72.0743C58.2793 72.0743 57.63 72.7236 57.63 73.5245V92.4012C57.63 93.2021 58.2793 93.8514 59.0802 93.8514C59.8811 93.8514 60.5304 93.2021 60.5304 92.4012V73.5245C60.5304 72.7236 59.8811 72.0743 59.0802 72.0743Z" fill="#D0935A"/>
<path d="M89.9694 72.0743C89.1685 72.0743 88.5192 72.7236 88.5192 73.5245V92.4012C88.5192 93.2021 89.1685 93.8514 89.9694 93.8514C90.7703 93.8514 91.4196 93.2021 91.4196 92.4012V73.5245C91.4196 72.7236 90.7703 72.0743 89.9694 72.0743Z" fill="#D0935A"/>
<path d="M95.1519 62.1641C96.0578 61.0152 96.5677 59.583 96.5677 58.08C96.5677 55.6361 95.2273 53.449 93.1299 52.3113C93.1338 52.232 93.1355 52.153 93.1355 52.0739C93.1355 50.1888 92.2229 48.4633 90.7331 47.4014C90.8317 47.0668 90.9233 46.73 91.0007 46.3889C91.1886 45.5608 91.3085 44.6856 91.3648 43.7266C93.6474 40.3586 94.8516 36.4296 94.8516 32.3391C94.8516 21.1308 85.733 12.0122 74.5247 12.0122C63.3165 12.0122 54.1979 21.1308 54.1979 32.3391C54.1979 36.43 55.4023 40.359 57.6849 43.7268C57.7412 44.6864 57.861 45.5613 58.0488 46.3887C58.1261 46.7296 58.2178 47.0665 58.3164 47.4012C56.8266 48.4631 55.9139 50.1886 55.9139 52.0739C55.9139 52.153 55.9159 52.232 55.9195 52.3113C53.822 53.449 52.4818 55.6363 52.4818 58.08C52.4818 59.583 52.9919 61.0152 53.8976 62.1641C50.909 63.9573 49.0497 67.1785 49.0497 70.7533V92.402C49.0497 93.2029 49.699 93.8522 50.4999 93.8522C51.3008 93.8522 51.9501 93.2029 51.9501 92.402V70.7533C51.9501 67.8208 53.7094 65.2223 56.4321 64.1331L56.7096 64.0221C60.9989 69.819 67.6067 73.2587 74.5249 73.2587C81.5377 73.2587 88.0007 69.8983 92.3389 64.0217L92.6175 64.1331C95.3404 65.2223 97.0996 67.8208 97.0996 70.7533V92.4012C97.0996 93.2021 97.7489 93.8514 98.5498 93.8514C99.3507 93.8514 100 93.2021 100 92.4012V70.7533C99.9998 67.1785 98.1404 63.9573 95.1519 62.1641ZM57.0983 32.3391C57.0983 22.7301 64.9158 14.9126 74.5247 14.9126C84.1337 14.9126 91.9512 22.7301 91.9512 32.3391C91.9512 34.7833 91.4491 37.1595 90.483 39.3526C88.3936 34.8564 83.7495 33.5965 79.2317 32.3741C75.5793 31.3858 71.8026 30.3637 68.5662 27.7746C68.2241 27.501 67.7765 27.3964 67.3492 27.4906C66.9215 27.5846 66.5591 27.8667 66.3632 28.2584C66.3482 28.2884 64.8289 31.2754 61.8636 32.7581C61.1472 33.1162 60.8568 33.9873 61.2151 34.7037C61.5732 35.4201 62.444 35.7107 63.1606 35.3522C65.521 34.1719 67.1473 32.2979 68.0642 31.0004C71.4422 33.2709 75.1539 34.2754 78.4741 35.1737C79.5639 35.4686 80.5668 35.7482 81.4835 36.0396C81.4518 36.039 81.4205 36.0373 81.3888 36.0373C79.6215 36.0373 78.0705 36.981 77.2136 38.3912C76.4119 37.9786 75.4917 37.7533 74.5247 37.7533C73.5576 37.7533 72.6372 37.9786 71.8357 38.3912C70.9785 36.9812 69.4276 36.0373 67.6605 36.0373C64.9683 36.0373 62.7782 38.2274 62.7782 40.9196C62.7782 43.6117 64.9683 45.8019 67.6605 45.8019C70.1695 45.8019 72.2417 43.8992 72.5121 41.461C72.9852 40.9575 73.725 40.6537 74.5247 40.6537C75.3243 40.6537 76.0641 40.9575 76.5372 41.461C76.8075 43.8992 78.8798 45.8019 81.3888 45.8019C84.0809 45.8019 86.2711 43.6117 86.2711 40.9196C86.2711 39.5092 85.6694 38.2373 84.7099 37.3453C86.7839 38.4755 88.0595 40.0533 88.5322 42.84C88.5079 42.9373 88.4924 43.0382 88.4885 43.1424C88.4539 44.1094 88.3503 44.9614 88.172 45.7472C87.4817 48.7893 85.7566 51.5516 83.3146 53.5256C80.8019 55.5567 77.7625 56.6302 74.5245 56.6302C71.2865 56.6302 68.2469 55.5567 65.7344 53.5256C63.2925 51.5518 61.5676 48.7893 60.8771 45.7472C60.6992 44.9629 60.5955 44.1117 60.5607 43.1449C60.5468 42.7609 60.3846 42.4162 60.1301 42.1652C58.1457 39.2646 57.0983 35.8727 57.0983 32.3391ZM83.3709 40.9194C83.3709 42.0122 82.4818 42.9013 81.389 42.9013C80.2961 42.9013 79.407 42.0122 79.407 40.9194C79.407 39.8265 80.2961 38.9374 81.389 38.9374C82.4818 38.9374 83.3709 39.8265 83.3709 40.9194ZM69.6424 40.9194C69.6424 42.0122 68.7534 42.9013 67.6605 42.9013C66.5676 42.9013 65.6786 42.0122 65.6786 40.9194C65.6786 39.8265 66.5676 38.9374 67.6605 38.9374C68.7534 38.9374 69.6424 39.8265 69.6424 40.9194ZM82.862 60.2263C80.6072 62.3194 77.6577 63.4938 74.5245 63.4938C71.3946 63.4938 68.4436 62.3184 66.1881 60.2259C67.0938 59.8295 67.8438 59.1788 68.3585 58.36C70.3118 59.1251 72.4051 59.5302 74.5247 59.5302C76.6443 59.5302 78.7376 59.1251 80.691 58.36C81.2059 59.1792 81.9563 59.8299 82.862 60.2263ZM56.6949 60.9042C55.8671 60.2046 55.3824 59.1759 55.3824 58.0798C55.3822 56.4763 56.4221 55.0688 57.9697 54.5775C58.7107 54.3424 59.1341 53.5649 58.9303 52.8148C58.8511 52.5238 58.8143 52.2883 58.8143 52.0739C58.8143 51.4014 59.0502 50.771 59.4574 50.2741C60.5323 52.3873 62.0482 54.2751 63.9113 55.781C64.4878 56.2469 65.0938 56.6718 65.7234 57.0552C65.5196 57.2899 65.2623 57.4773 64.9645 57.5964L56.6949 60.9042ZM74.5247 70.3583C68.6795 70.3583 63.2778 67.658 59.5062 62.9035L63.2689 61.3986C66.1475 64.5844 70.1999 66.3944 74.5249 66.3944C78.854 66.3944 82.9022 64.585 85.7805 61.3984L89.5447 62.9041C85.7713 67.6571 80.3605 70.3583 74.5247 70.3583ZM92.3546 60.9044L84.0848 57.5964C83.787 57.4773 83.5298 57.2899 83.326 57.0552C83.9554 56.6716 84.5616 56.2469 85.1382 55.781C87.0012 54.2751 88.5172 52.3871 89.592 50.2741C89.9993 50.771 90.2351 51.4014 90.2351 52.0739C90.2351 52.2883 90.1984 52.5238 90.1191 52.8148C89.9151 53.5649 90.3388 54.3424 91.0797 54.5775C92.6274 55.0688 93.6673 56.4763 93.6673 58.08C93.6673 59.1761 93.1823 60.2048 92.3546 60.9044Z" fill="#D0935A"/>
</svg>
