<svg 
 xmlns="http://www.w3.org/2000/svg"
 xmlns:xlink="http://www.w3.org/1999/xlink"
 width="45px" height="41px">
<path fill-rule="evenodd"  fill="rgb(254, 185, 96)"
 d="M28.534,40.016 L28.534,10.016 L44.466,10.016 L44.466,40.016 L28.534,40.016 ZM43.529,10.954 L29.471,10.954 L29.471,13.766 L43.529,13.766 L43.529,10.954 ZM43.529,14.704 L29.471,14.704 L29.471,33.454 L43.529,33.454 L43.529,14.704 ZM43.529,34.391 L29.471,34.391 L29.471,39.079 L43.529,39.079 L43.529,34.391 ZM36.500,35.328 C36.890,35.328 37.222,35.466 37.496,35.739 C37.769,36.013 37.906,36.345 37.906,36.735 C37.906,37.126 37.769,37.458 37.496,37.731 C37.222,38.005 36.890,38.141 36.500,38.141 C36.109,38.141 35.777,38.005 35.504,37.731 C35.231,37.458 35.094,37.126 35.094,36.735 C35.094,36.345 35.231,36.013 35.504,35.739 C35.777,35.466 36.109,35.328 36.500,35.328 ZM36.500,37.204 C36.812,37.204 36.969,37.048 36.969,36.735 C36.969,36.423 36.812,36.266 36.500,36.266 C36.187,36.266 36.031,36.423 36.031,36.735 C36.031,37.048 36.187,37.204 36.500,37.204 ZM38.374,12.828 L34.626,12.828 L34.626,11.892 L38.374,11.892 L38.374,12.828 ZM0.755,0.016 L28.246,0.016 L28.246,40.016 L0.755,40.016 L0.755,0.016 ZM2.004,38.767 L26.996,38.767 L26.996,32.516 L2.004,32.516 L2.004,38.767 ZM2.004,31.267 L26.996,31.267 L26.996,6.266 L2.004,6.266 L2.004,31.267 ZM2.004,5.016 L26.996,5.016 L26.996,1.266 L2.004,1.266 L2.004,5.016 ZM12.001,2.516 L16.999,2.516 L16.999,3.766 L12.001,3.766 L12.001,2.516 ZM14.500,37.516 C13.979,37.516 13.536,37.334 13.172,36.969 C12.808,36.606 12.626,36.162 12.626,35.641 C12.626,35.121 12.808,34.678 13.172,34.313 C13.536,33.949 13.979,33.766 14.500,33.766 C15.020,33.766 15.463,33.949 15.828,34.313 C16.192,34.678 16.375,35.121 16.375,35.641 C16.375,36.162 16.192,36.606 15.828,36.969 C15.463,37.334 15.020,37.516 14.500,37.516 ZM14.500,35.017 C14.083,35.017 13.875,35.225 13.875,35.641 C13.875,36.059 14.083,36.266 14.500,36.266 C14.916,36.266 15.125,36.059 15.125,35.641 C15.125,35.225 14.916,35.017 14.500,35.017 Z"/>
</svg>