<svg 
 xmlns="http://www.w3.org/2000/svg"
 xmlns:xlink="http://www.w3.org/1999/xlink"
 width="41px" height="40px">
<path fill-rule="evenodd"  fill="rgb(56, 198, 149)"
 d="M40.052,19.999 C40.052,25.521 38.099,30.234 34.193,34.140 C30.287,38.046 25.573,40.000 20.053,40.000 C14.533,40.000 9.820,38.046 5.914,34.140 C2.008,30.234 0.055,25.521 0.055,19.999 C0.055,14.479 2.008,9.765 5.914,5.859 C9.820,1.953 14.533,-0.001 20.053,-0.001 C25.573,-0.001 30.287,1.953 34.193,5.859 C38.099,9.765 40.052,14.479 40.052,19.999 ZM38.411,19.999 C38.411,14.896 36.627,10.560 33.060,6.992 C29.492,3.425 25.157,1.640 20.053,1.640 C14.949,1.640 10.613,3.425 7.047,6.992 C3.479,10.560 1.696,14.896 1.696,19.999 C1.696,25.104 3.479,29.441 7.047,33.007 C10.613,36.575 14.949,38.359 20.053,38.359 C25.157,38.359 29.492,36.575 33.060,33.007 C36.627,29.441 38.411,25.104 38.411,19.999 ZM17.515,17.500 C18.686,18.229 19.988,18.816 21.420,19.258 C22.852,19.701 24.167,20.417 25.365,21.406 C26.563,22.396 27.188,23.646 27.240,25.156 C27.240,26.614 26.719,27.851 25.678,28.866 C24.636,29.882 23.204,30.495 21.381,30.702 L21.381,33.359 L19.585,33.359 L19.585,30.468 C16.772,30.364 14.663,29.531 13.257,27.968 L14.585,26.484 L15.210,27.031 C15.679,27.448 16.394,27.851 17.358,28.242 C18.321,28.632 19.324,28.828 20.366,28.828 C21.667,28.828 22.749,28.503 23.608,27.851 C24.467,27.201 24.897,26.354 24.897,25.312 C24.897,24.167 24.311,23.202 23.139,22.422 C21.967,21.640 20.665,21.042 19.233,20.625 C17.800,20.208 16.499,19.518 15.327,18.554 C14.156,17.591 13.570,16.406 13.570,14.999 C13.570,13.646 14.116,12.435 15.210,11.367 C16.304,10.300 17.683,9.687 19.350,9.531 L19.350,6.641 L21.225,6.641 L21.225,9.531 C23.569,9.636 25.339,10.287 26.537,11.484 L25.365,13.203 L24.741,12.734 C24.323,12.421 23.698,12.109 22.866,11.796 C22.032,11.484 21.198,11.327 20.366,11.327 C19.011,11.327 17.905,11.667 17.046,12.343 C16.187,13.021 15.757,13.854 15.757,14.843 C15.757,15.886 16.343,16.771 17.515,17.500 Z"/>
</svg>