<svg 
 xmlns="http://www.w3.org/2000/svg"
 xmlns:xlink="http://www.w3.org/1999/xlink"
 width="55px" height="43px">
<path fill-rule="evenodd"  fill="rgb(178, 124, 245)"
 d="M46.406,42.999 L-0.000,42.999 L-0.000,6.893 L46.406,6.893 L46.406,42.999 ZM1.719,8.612 L1.719,31.501 L12.891,20.218 L25.137,34.187 L33.623,29.030 L44.687,38.593 L44.687,8.612 L1.719,8.612 ZM44.687,41.279 L44.687,40.850 L33.408,31.178 L24.707,36.336 L12.891,22.797 L1.719,33.865 L1.719,41.279 L44.687,41.279 ZM7.734,0.016 L55.000,0.016 L55.000,36.122 L47.266,36.122 L47.266,34.402 L53.281,34.402 L53.281,1.735 L9.453,1.735 L9.453,6.034 L7.734,6.034 L7.734,0.016 ZM29.219,18.929 C29.219,17.496 29.719,16.279 30.723,15.275 C31.725,14.272 32.941,13.771 34.375,13.771 C35.807,13.771 37.024,14.272 38.027,15.275 C39.029,16.279 39.531,17.496 39.531,18.929 C39.531,20.362 39.029,21.580 38.027,22.582 C37.024,23.586 35.807,24.086 34.375,24.086 C32.941,24.086 31.725,23.586 30.723,22.582 C29.719,21.580 29.219,20.362 29.219,18.929 ZM30.937,18.929 C30.937,19.932 31.260,20.755 31.904,21.400 C32.549,22.045 33.371,22.367 34.375,22.367 C35.377,22.367 36.201,22.045 36.846,21.400 C37.490,20.755 37.812,19.932 37.812,18.929 C37.812,17.926 37.490,17.102 36.846,16.457 C36.201,15.812 35.377,15.490 34.375,15.490 C33.371,15.490 32.549,15.812 31.904,16.457 C31.260,17.102 30.937,17.926 30.937,18.929 Z"/>
</svg>