<svg 
 xmlns="http://www.w3.org/2000/svg"
 xmlns:xlink="http://www.w3.org/1999/xlink"
 width="41px" height="40px">
<path fill-rule="evenodd"  fill="rgb(254, 185, 96)"
 d="M40.206,19.976 C40.206,25.478 38.261,30.183 34.376,34.090 C30.489,37.998 25.808,39.951 20.337,39.951 C14.864,39.951 10.184,37.998 6.298,34.090 C2.411,30.183 0.468,25.478 0.468,19.976 C0.468,14.474 2.411,9.769 6.298,5.861 C10.184,1.954 14.864,-0.001 20.337,-0.001 C25.808,-0.001 30.489,1.954 34.376,5.861 C38.261,9.769 40.206,14.474 40.206,19.976 ZM38.620,19.976 C38.620,14.911 36.832,10.582 33.256,6.986 C29.680,3.391 25.374,1.594 20.337,1.594 C15.300,1.594 10.993,3.391 7.418,6.986 C3.841,10.582 2.054,14.911 2.054,19.976 C2.054,25.039 3.841,29.370 7.418,32.964 C10.993,36.560 15.300,38.356 20.337,38.356 C25.374,38.356 29.680,36.560 33.256,32.964 C36.832,29.370 38.620,25.039 38.620,19.976 ZM31.997,12.847 C32.557,13.410 32.525,13.974 31.904,14.536 L18.285,27.853 C18.098,28.041 17.849,28.134 17.539,28.134 C17.165,28.134 16.886,28.041 16.699,27.853 L11.382,22.507 C10.822,21.945 10.822,21.382 11.382,20.820 C11.942,20.257 12.502,20.257 13.061,20.820 L17.539,25.320 L30.318,12.847 C30.878,12.285 31.437,12.285 31.997,12.847 Z"/>
</svg>