<svg 
 xmlns="http://www.w3.org/2000/svg"
 xmlns:xlink="http://www.w3.org/1999/xlink"
 width="40px" height="40px">
<path fill-rule="evenodd"  fill="rgb(178, 124, 245)"
 d="M1.648,19.999 C1.648,25.104 3.424,29.441 6.978,33.007 C10.530,36.575 14.848,38.359 19.931,38.359 C25.014,38.359 29.332,36.575 32.885,33.007 C36.437,29.441 38.215,25.104 38.215,19.999 C38.215,14.896 36.437,10.560 32.885,6.992 C29.332,3.425 25.014,1.640 19.931,1.640 C14.848,1.640 10.530,3.425 6.978,6.992 C3.424,10.560 1.648,14.896 1.648,19.999 ZM39.849,19.999 C39.849,25.521 37.903,30.234 34.013,34.140 C30.123,38.046 25.429,40.000 19.931,40.000 C14.433,40.000 9.740,38.046 5.849,34.140 C1.959,30.234 0.014,25.521 0.014,19.999 C0.014,14.479 1.959,9.765 5.849,5.859 C9.740,1.953 14.433,-0.001 19.931,-0.001 C25.429,-0.001 30.123,1.953 34.013,5.859 C37.903,9.765 39.849,14.479 39.849,19.999 ZM32.224,12.343 L30.901,11.015 L19.931,22.187 L12.307,14.375 L10.984,15.702 L19.931,24.531 L32.224,12.343 ZM19.931,3.671 C19.568,3.671 19.257,3.802 18.998,4.062 C18.738,4.323 18.609,4.636 18.609,5.000 C18.609,5.365 18.738,5.677 18.998,5.937 C19.257,6.198 19.568,6.328 19.931,6.328 C20.294,6.328 20.605,6.198 20.865,5.937 C21.124,5.677 21.254,5.365 21.254,5.000 C21.254,4.636 21.124,4.323 20.865,4.062 C20.605,3.802 20.294,3.671 19.931,3.671 ZM19.931,33.672 C19.568,33.672 19.257,33.802 18.998,34.062 C18.738,34.323 18.609,34.636 18.609,34.999 C18.609,35.365 18.738,35.677 18.998,35.937 C19.257,36.199 19.568,36.328 19.931,36.328 C20.294,36.328 20.605,36.199 20.865,35.937 C21.124,35.677 21.254,35.365 21.254,34.999 C21.254,34.636 21.124,34.323 20.865,34.062 C20.605,33.802 20.294,33.672 19.931,33.672 ZM4.994,18.671 C4.630,18.671 4.319,18.802 4.060,19.062 C3.800,19.323 3.671,19.636 3.671,19.999 C3.671,20.365 3.800,20.677 4.060,20.937 C4.319,21.198 4.630,21.328 4.994,21.328 C5.356,21.328 5.667,21.198 5.927,20.937 C6.186,20.677 6.316,20.365 6.316,19.999 C6.316,19.636 6.186,19.323 5.927,19.062 C5.667,18.802 5.356,18.671 4.994,18.671 ZM34.869,18.671 C34.506,18.671 34.195,18.802 33.936,19.062 C33.675,19.323 33.547,19.636 33.547,19.999 C33.547,20.365 33.675,20.677 33.936,20.937 C34.195,21.198 34.506,21.328 34.869,21.328 C35.232,21.328 35.543,21.198 35.803,20.937 C36.062,20.677 36.192,20.365 36.192,19.999 C36.192,19.636 36.062,19.323 35.803,19.062 C35.543,18.802 35.232,18.671 34.869,18.671 Z"/>
</svg>