<svg 
 xmlns="http://www.w3.org/2000/svg"
 xmlns:xlink="http://www.w3.org/1999/xlink"
 width="55px" height="40px">
<path fill-rule="evenodd"  fill="rgb(252, 95, 69)"
 d="M47.266,39.279 L-0.000,39.279 L-0.000,8.332 L47.266,8.332 L47.266,39.279 ZM45.547,10.051 L1.719,10.051 L1.719,37.560 L45.547,37.560 L45.547,10.051 ZM9.453,6.612 L7.734,6.612 L7.734,0.596 L55.000,0.596 L55.000,31.542 L48.984,31.542 L48.984,29.823 L53.281,29.823 L53.281,2.315 L9.453,2.315 L9.453,6.612 ZM42.969,21.227 L35.234,21.227 L35.234,12.630 L42.969,12.630 L42.969,21.227 ZM41.250,14.349 L36.953,14.349 L36.953,19.507 L41.250,19.507 L41.250,14.349 ZM27.500,34.981 L29.219,34.981 L29.219,12.630 L27.500,12.630 L27.500,34.981 ZM4.297,16.068 L24.922,16.068 L24.922,14.349 L4.297,14.349 L4.297,16.068 ZM4.297,20.367 L22.344,20.367 L22.344,18.648 L4.297,18.648 L4.297,20.367 ZM4.297,24.666 L23.203,24.666 L23.203,22.946 L4.297,22.946 L4.297,24.666 Z"/>
</svg>